<svg xmlns="http://www.w3.org/2000/svg" xmlns:xlink="http://www.w3.org/1999/xlink" width="500" zoomAndPan="magnify" viewBox="0 0 375 374.999991" height="500" preserveAspectRatio="xMidYMid meet" version="1.0"><defs><g/><clipPath id="id1"><path d="M 58.902344 58.902344 L 337.152344 58.902344 L 337.152344 337.152344 L 58.902344 337.152344 Z M 58.902344 58.902344 " clip-rule="nonzero"/></clipPath><clipPath id="id2"><path d="M 212.949219 93.09375 L 293.949219 93.09375 L 293.949219 165.84375 L 212.949219 165.84375 Z M 212.949219 93.09375 " clip-rule="nonzero"/></clipPath></defs><g clip-path="url(#id1)"><path fill="#233dff" d="M 198.027344 58.902344 C 121.191406 58.902344 58.902344 121.191406 58.902344 198.027344 C 58.902344 274.863281 121.191406 337.152344 198.027344 337.152344 C 274.863281 337.152344 337.152344 274.863281 337.152344 198.027344 C 337.152344 121.191406 274.863281 58.902344 198.027344 58.902344 " fill-opacity="1" fill-rule="nonzero"/></g><g fill="#f4f6fc" fill-opacity="1"><g transform="translate(128.008197, 214.902718)"><g><path d="M 3.960938 0 L 6.664062 0 L 6.664062 -42.960938 L 6.796875 -42.960938 L 23.097656 0 L 26.265625 0 L 42.566406 -42.960938 L 42.695312 -42.960938 L 42.695312 0 L 45.402344 0 L 45.402344 -46.261719 L 40.980469 -46.261719 L 24.746094 -3.234375 L 24.679688 -3.234375 L 8.382812 -46.261719 L 3.960938 -46.261719 Z M 3.960938 0 "/></g></g></g><g fill="#f4f6fc" fill-opacity="1"><g transform="translate(177.367397, 214.902718)"><g><path d="M 3.960938 0 L 26.464844 0 L 26.464844 -2.574219 L 6.664062 -2.574219 L 6.664062 -46.261719 L 3.960938 -46.261719 Z M 3.960938 0 "/></g></g></g><g fill="#f4f6fc" fill-opacity="1"><g transform="translate(204.488565, 214.902718)"><g><path d="M 15.839844 0 L 19.402344 0 L 34.515625 -46.261719 L 31.675781 -46.261719 L 17.6875 -2.96875 L 17.621094 -2.96875 L 3.496094 -46.261719 L 0.660156 -46.261719 Z M 15.839844 0 "/></g></g></g><g fill="#f4f6fc" fill-opacity="1"><g transform="translate(239.660297, 214.902718)"><g><path d="M 3.960938 0 L 6.664062 0 L 6.664062 -22.109375 L 23.691406 -22.109375 L 23.691406 -24.679688 L 6.664062 -24.679688 L 6.664062 -43.6875 L 27.386719 -43.6875 L 27.386719 -46.261719 L 3.960938 -46.261719 Z M 3.960938 0 "/></g></g></g><g clip-path="url(#id2)"><path fill="#465962" d="M 265.800781 93.09375 L 241.089844 93.09375 C 225.546875 93.09375 212.949219 105.394531 212.949219 121.609375 C 212.949219 133.46875 219.554688 142.945312 229.097656 147.339844 L 229.097656 165.84375 L 248.210938 149.960938 L 265.800781 149.960938 C 281.347656 149.960938 293.945312 137.65625 293.945312 121.609375 C 293.945312 105.394531 281.347656 93.09375 265.800781 93.09375 " fill-opacity="1" fill-rule="nonzero"/></g><g fill="#ffffff" fill-opacity="1"><g transform="translate(225.935702, 123.820046)"><g><path d="M 9.234375 1.214844 C 11.785156 1.214844 13.484375 -0.609375 13.484375 -3.039062 C 13.484375 -5.46875 11.785156 -7.289062 9.234375 -7.289062 C 6.5625 -7.289062 4.859375 -5.46875 4.859375 -3.039062 C 4.859375 -0.484375 6.5625 1.214844 9.234375 1.214844 Z M 9.234375 1.214844 "/></g></g></g><g fill="#ffffff" fill-opacity="1"><g transform="translate(244.280424, 123.820046)"><g><path d="M 9.234375 1.214844 C 11.785156 1.214844 13.484375 -0.609375 13.484375 -3.039062 C 13.484375 -5.46875 11.785156 -7.289062 9.234375 -7.289062 C 6.5625 -7.289062 4.859375 -5.46875 4.859375 -3.039062 C 4.859375 -0.484375 6.5625 1.214844 9.234375 1.214844 Z M 9.234375 1.214844 "/></g></g></g><g fill="#ffffff" fill-opacity="1"><g transform="translate(262.625147, 123.820046)"><g><path d="M 9.234375 1.214844 C 11.785156 1.214844 13.484375 -0.609375 13.484375 -3.039062 C 13.484375 -5.46875 11.785156 -7.289062 9.234375 -7.289062 C 6.5625 -7.289062 4.859375 -5.46875 4.859375 -3.039062 C 4.859375 -0.484375 6.5625 1.214844 9.234375 1.214844 Z M 9.234375 1.214844 "/></g></g></g></svg>